<svg id="Layer_1" data-name="Layer 1" xmlns="http://www.w3.org/2000/svg" viewBox="0 0 1070.8 1060.17"><defs><style>.cls-1,.cls-11,.cls-12,.cls-2,.cls-20,.cls-21,.cls-3,.cls-32,.cls-34,.cls-6,.cls-7,.cls-8,.cls-9{fill:none;}.cls-1{stroke:#939598;}.cls-1,.cls-32,.cls-6,.cls-7,.cls-8,.cls-9{stroke-miterlimit:10;}.cls-2,.cls-24{stroke:#24303f;}.cls-11,.cls-12,.cls-2,.cls-20,.cls-21,.cls-24,.cls-3,.cls-34{stroke-linejoin:round;}.cls-11,.cls-12,.cls-2,.cls-20,.cls-21,.cls-24,.cls-3,.cls-32,.cls-34,.cls-6{stroke-width:2px;}.cls-11,.cls-12,.cls-20,.cls-21,.cls-3,.cls-32{stroke:#5c77ba;}.cls-10,.cls-4{font-size:14px;}.cls-4{fill:#484847;}.cls-16,.cls-25,.cls-37,.cls-4{font-family:AmazonEmber-Regular, Amazon Ember;}.cls-5{letter-spacing:0em;}.cls-34,.cls-6{stroke:#232f3e;}.cls-7,.cls-8,.cls-9{stroke:#808285;}.cls-8{stroke-dasharray:4 4;}.cls-9{stroke-dasharray:4.03 4.03;}.cls-10,.cls-16{fill:#231f20;}.cls-10,.cls-26{font-family:AmazonEmber-Medium, Amazon Ember;font-weight:500;}.cls-11{stroke-dasharray:14.69 14.69;}.cls-12{stroke-dasharray:15.63 15.63;}.cls-13{font-size:13px;}.cls-13,.cls-33{fill:#5c77ba;font-family:AmazonEmber-Bold, Amazon Ember;font-weight:700;}.cls-14{letter-spacing:-0.04em;}.cls-15{letter-spacing:0.03em;}.cls-16,.cls-33{font-size:12px;}.cls-17{letter-spacing:-0.01em;}.cls-18,.cls-24{fill:#fff;}.cls-19{fill:#232f3e;}.cls-20{stroke-dasharray:11.41 11.41;}.cls-21{stroke-dasharray:11.05 11.05;}.cls-22{letter-spacing:-0.01em;}.cls-23{letter-spacing:0em;}.cls-25{isolation:isolate;font-size:21.65px;fill:#24303f;}.cls-26{font-size:16px;fill:#6d6e71;}.cls-27{letter-spacing:-0.04em;}.cls-28{letter-spacing:0em;}.cls-29{letter-spacing:-0.01em;}.cls-30{letter-spacing:0em;}.cls-31{letter-spacing:-0.01em;}.cls-35{letter-spacing:0em;}.cls-36{letter-spacing:0.04em;}.cls-37{font-weight:400;fill:#000;}.cls-38{letter-spacing:-0.02em;}.cls-39{letter-spacing:0em;}</style></defs><title>resolverGraphic</title><rect class="cls-1" x="273.29" y="19.52" width="778.5" height="502.73"/><rect class="cls-2" x="89.72" y="253.75" width="62.57" height="16.69" rx="2"/><rect class="cls-2" x="89.72" y="276.34" width="62.57" height="16.69" rx="1.94"/><rect class="cls-2" x="98.06" y="270.44" width="45.89" height="5.66"/><rect class="cls-2" x="89.72" y="298.93" width="62.57" height="16.69" rx="2"/><rect class="cls-3" x="99.19" y="259.15" width="5.88" height="5.88"/><rect class="cls-3" x="113.08" y="259.15" width="5.88" height="5.88"/><rect class="cls-2" x="98.06" y="293.29" width="45.89" height="5.66"/><rect class="cls-3" x="125.01" y="281.74" width="5.88" height="5.88"/><rect class="cls-3" x="138.9" y="281.74" width="5.88" height="5.88"/><rect class="cls-3" x="99.19" y="304.33" width="5.88" height="5.88"/><rect class="cls-3" x="113.08" y="304.33" width="5.88" height="5.88"/><rect class="cls-2" x="96.03" y="315.61" width="15.13" height="5.63"/><rect class="cls-2" x="131.11" y="315.61" width="15.13" height="5.63"/><path class="cls-2" d="M108.51,232.72c0,4.42-10.82,8-25.69,8s-25.69-3.58-25.69-8,10.82-9,25.69-9S108.51,228.29,108.51,232.72Z"/><path class="cls-2" d="M82.82,256.65c-14.87,0-25.69-3.59-25.69-8"/><path class="cls-2" d="M82.82,272.41c-14.87,0-25.69-3.58-25.69-8"/><line class="cls-2" x1="57.13" y1="232.23" x2="57.13" y2="279.29"/><line class="cls-2" x1="108.51" y1="232.72" x2="108.51" y2="247.59"/><path class="cls-2" d="M84,287.12c-14.87,0-26.82-3.58-26.82-8"/><text class="cls-4" transform="translate(57.16 340.95)"><tspan class="cls-5">Your network</tspan><tspan x="85.65" y="0"> </tspan></text><rect class="cls-6" x="296.18" y="81.99" width="281.97" height="418.43"/><polyline class="cls-7" points="565.64 485.24 565.64 487.24 563.64 487.24"/><line class="cls-8" x1="559.65" y1="487.24" x2="313.84" y2="487.24"/><polyline class="cls-7" points="311.84 487.24 309.84 487.24 309.84 485.24"/><line class="cls-9" x1="309.84" y1="481.21" x2="309.84" y2="112.71"/><polyline class="cls-7" points="309.84 110.7 309.84 108.7 311.84 108.7"/><line class="cls-8" x1="315.84" y1="108.7" x2="561.64" y2="108.7"/><polyline class="cls-7" points="563.64 108.7 565.64 108.7 565.64 110.7"/><line class="cls-9" x1="565.64" y1="114.73" x2="565.64" y2="483.22"/><text class="cls-10" transform="translate(318.67 128.81)">Inbound endpoint</text><polyline class="cls-3" points="542.51 299.3 542.51 306.8 535.01 306.8"/><line class="cls-11" x1="520.32" y1="306.79" x2="351.38" y2="306.79"/><polyline class="cls-3" points="344.04 306.8 336.54 306.8 336.54 299.3"/><line class="cls-12" x1="336.54" y1="283.67" x2="336.54" y2="166.47"/><polyline class="cls-3" points="336.54 158.66 336.54 151.16 344.04 151.16"/><line class="cls-11" x1="358.73" y1="151.15" x2="527.67" y2="151.15"/><polyline class="cls-3" points="535.01 151.16 542.51 151.16 542.51 158.66"/><line class="cls-12" x1="542.51" y1="174.28" x2="542.51" y2="291.48"/><text class="cls-13" transform="translate(387.75 296.36)"><tspan class="cls-14">A</tspan><tspan x="8.13" y="0">vailabili</tspan><tspan class="cls-15" x="57.17" y="0">t</tspan><tspan x="62.69" y="0">y Zone</tspan></text><rect class="cls-6" x="349.81" y="188.75" width="180.6" height="79.83"/><text class="cls-16" transform="translate(408.28 244.06)">VPC subnet<tspan x="3.63" y="14.4">IP add</tspan><tspan class="cls-17" x="37.79" y="14.4">r</tspan><tspan x="42.15" y="14.4">ess</tspan></text><rect class="cls-18" x="355.94" y="178.92" width="33.75" height="19.87"/><path class="cls-19" d="M379.39,167.31a9.61,9.61,0,0,0-6.23-2.21h0c-4.93,0-8.93,3.49-8.93,7.78v6.25h-2.54a1.28,1.28,0,0,0-1.28,1.28v17.85a1.26,1.26,0,0,0,1.27,1.27h23a1.27,1.27,0,0,0,1.27-1.27V180.42a1.25,1.25,0,0,0-.37-.9,1.3,1.3,0,0,0-.91-.38h-2.55v-6.25A7.27,7.27,0,0,0,379.39,167.31Zm-12.61,5.57c0-2.88,2.86-5.23,6.38-5.23h0a7,7,0,0,1,4.58,1.61,4.75,4.75,0,0,1,1.8,3.63v6.25H366.77Zm16.58,12.63h-3.83v2.55h3.83v2.55h-3.83v2.55h3.83V197H363V181.68h20.41Z"/><polyline class="cls-3" points="543.1 466.83 543.1 472.83 537.1 472.83"/><line class="cls-20" x1="525.69" y1="472.83" x2="348.83" y2="472.83"/><polyline class="cls-3" points="343.12 472.83 337.12 472.83 337.12 466.83"/><line class="cls-21" x1="337.12" y1="455.78" x2="337.12" y2="328.71"/><polyline class="cls-3" points="337.12 323.19 337.12 317.19 343.12 317.19"/><line class="cls-20" x1="354.53" y1="317.19" x2="531.39" y2="317.19"/><polyline class="cls-3" points="537.1 317.19 543.1 317.19 543.1 323.19"/><line class="cls-21" x1="543.1" y1="334.24" x2="543.1" y2="461.3"/><text class="cls-13" transform="translate(388.34 462.39)"><tspan class="cls-14">A</tspan><tspan x="8.13" y="0">vailabili</tspan><tspan class="cls-15" x="57.17" y="0">t</tspan><tspan x="62.69" y="0">y Zone</tspan></text><rect class="cls-6" x="350.39" y="354.79" width="180.6" height="79.83"/><text class="cls-16" transform="translate(408.86 410.09)">VPC subnet<tspan x="3.63" y="14.4">IP add</tspan><tspan class="cls-22" x="37.79" y="14.4">r</tspan><tspan class="cls-23" x="42.15" y="14.4">ess</tspan></text><rect class="cls-18" x="356.53" y="344.96" width="33.75" height="19.87"/><path class="cls-19" d="M380,333.35a9.65,9.65,0,0,0-6.24-2.22h0c-4.92,0-8.93,3.49-8.93,7.78v6.26h-2.55a1.27,1.27,0,0,0-1.27,1.27v17.85a1.27,1.27,0,0,0,.38.9,1.26,1.26,0,0,0,.9.38h22.95a1.27,1.27,0,0,0,1.28-1.27V346.45a1.28,1.28,0,0,0-1.27-1.28h-2.55v-6.25A7.27,7.27,0,0,0,380,333.35Zm-12.62,5.56c0-2.88,2.86-5.23,6.38-5.23h0a7.1,7.1,0,0,1,4.59,1.61,4.78,4.78,0,0,1,1.8,3.63v6.25H367.36Zm16.58,12.63h-3.82v2.55h3.82v2.56h-3.82v2.55h3.82V363H363.53v-15.3h20.41Z"/><g id="Art"><path class="cls-24" d="M356.63,95.61H319.78c-6.32,0-11.48-4.1-11.82-10.24v-.83c0-7.08,4.79-10.24,9-11.27h0a19.34,19.34,0,0,1-.11-2,16.7,16.7,0,0,1,28.63-11.18,19.25,19.25,0,0,1,4.61,7.32h0c3.87-5,12.37-3.5,12.92,5.7,4,.82,10.69,3.29,10.69,11.57,0,9.55-7.19,10.92-11.84,10.92h-5.27Z"/><text class="cls-25" transform="translate(320.35 89.14)">VPC</text></g><text class="cls-26" transform="translate(282.73 41.8)"><tspan class="cls-27">A</tspan><tspan x="9.71" y="0">WS </tspan><tspan class="cls-17" x="38.13" y="0">R</tspan><tspan class="cls-28" x="47.92" y="0">egion us-</tspan><tspan class="cls-17" x="115.84" y="0">w</tspan><tspan x="128.17" y="0">es</tspan><tspan class="cls-29" x="143.69" y="0">t</tspan><tspan class="cls-30" x="149.69" y="0">-1</tspan></text><rect class="cls-6" x="700" y="235.21" width="193.38" height="97.41"/><text class="cls-10" transform="translate(709.92 255.4)"><tspan class="cls-17">R</tspan><tspan x="8.57" y="0">esol</tspan><tspan class="cls-31" x="34.54" y="0">v</tspan><tspan x="41.69" y="0">er</tspan></text><rect class="cls-32" x="716.37" y="269.3" width="160.66" height="50"/><text class="cls-33" transform="translate(781.47 297.69)">Ru<tspan class="cls-22" x="14.84" y="0">l</tspan><tspan x="18.62" y="0">es</tspan></text><line class="cls-6" x1="578.17" y1="283.66" x2="695.76" y2="283.67"/><line class="cls-34" x1="685.03" y1="294.48" x2="696.38" y2="283.15"/><line class="cls-34" x1="685.44" y1="273.48" x2="696.38" y2="284.46"/><line class="cls-6" x1="152.04" y1="283.33" x2="294.63" y2="283.34"/><line class="cls-34" x1="283.9" y1="294.15" x2="295.24" y2="282.83"/><line class="cls-34" x1="284.31" y1="273.16" x2="295.25" y2="284.14"/><rect class="cls-1" x="272.71" y="536.83" width="778.5" height="502.73"/><rect class="cls-2" x="89.12" y="771.06" width="62.57" height="16.69" rx="2"/><rect class="cls-2" x="89.12" y="793.65" width="62.57" height="16.69" rx="1.94"/><rect class="cls-2" x="97.46" y="787.75" width="45.89" height="5.66"/><rect class="cls-2" x="89.12" y="816.24" width="62.57" height="16.69" rx="2"/><rect class="cls-3" x="98.6" y="776.46" width="5.88" height="5.88"/><rect class="cls-3" x="112.48" y="776.46" width="5.88" height="5.88"/><rect class="cls-2" x="97.46" y="810.59" width="45.89" height="5.66"/><rect class="cls-3" x="124.41" y="799.05" width="5.88" height="5.88"/><rect class="cls-3" x="138.3" y="799.05" width="5.88" height="5.88"/><rect class="cls-3" x="98.6" y="821.64" width="5.88" height="5.88"/><rect class="cls-3" x="112.48" y="821.64" width="5.88" height="5.88"/><rect class="cls-2" x="95.43" y="832.92" width="15.13" height="5.63"/><rect class="cls-2" x="130.51" y="832.92" width="15.13" height="5.63"/><path class="cls-2" d="M107.91,750c0,4.42-10.82,8-25.69,8s-25.69-3.59-25.69-8,10.82-9,25.69-9S107.91,745.6,107.91,750Z"/><path class="cls-2" d="M82.22,774c-14.87,0-25.69-3.58-25.69-8"/><path class="cls-2" d="M82.22,789.72c-14.87,0-25.69-3.58-25.69-8"/><line class="cls-2" x1="56.53" y1="749.53" x2="56.53" y2="796.6"/><line class="cls-2" x1="107.91" y1="750.02" x2="107.91" y2="764.89"/><path class="cls-2" d="M83.35,804.43c-14.87,0-26.82-3.58-26.82-8"/><text class="cls-4" transform="translate(76.37 858.26)"><tspan class="cls-35">DNS for<tspan x="-41.94" y="16.8">jyo.example.com and</tspan></tspan><tspan class="cls-35" x="-28.26" y="33.6">ric.example.com</tspan><tspan x="74.29" y="33.6"> </tspan></text><rect class="cls-6" x="295.58" y="599.3" width="281.97" height="418.43"/><polyline class="cls-7" points="565.04 1002.54 565.04 1004.54 563.04 1004.54"/><line class="cls-8" x1="559.05" y1="1004.54" x2="313.24" y2="1004.54"/><polyline class="cls-7" points="311.25 1004.54 309.25 1004.54 309.25 1002.54"/><line class="cls-9" x1="309.25" y1="998.52" x2="309.25" y2="630.02"/><polyline class="cls-7" points="309.25 628.01 309.25 626.01 311.25 626.01"/><line class="cls-8" x1="315.24" y1="626.01" x2="561.05" y2="626.01"/><polyline class="cls-7" points="563.04 626.01 565.04 626.01 565.04 628.01"/><line class="cls-9" x1="565.04" y1="632.04" x2="565.04" y2="1000.53"/><text class="cls-10" transform="translate(318.07 646.12)">Outbound endpoint</text><polyline class="cls-3" points="541.91 816.6 541.91 824.1 534.41 824.1"/><line class="cls-11" x1="519.72" y1="824.1" x2="350.79" y2="824.1"/><polyline class="cls-3" points="343.44 824.1 335.94 824.1 335.94 816.6"/><line class="cls-12" x1="335.94" y1="800.98" x2="335.94" y2="683.78"/><polyline class="cls-3" points="335.94 675.96 335.94 668.46 343.44 668.46"/><line class="cls-11" x1="358.13" y1="668.46" x2="527.07" y2="668.46"/><polyline class="cls-3" points="534.41 668.46 541.91 668.46 541.91 675.96"/><line class="cls-12" x1="541.91" y1="691.59" x2="541.91" y2="808.79"/><text class="cls-13" transform="translate(387.15 813.66)"><tspan class="cls-14">A</tspan><tspan x="8.13" y="0">vailabili</tspan><tspan class="cls-15" x="57.17" y="0">t</tspan><tspan x="62.69" y="0">y Zone</tspan></text><rect class="cls-6" x="349.21" y="706.06" width="180.6" height="79.83"/><text class="cls-16" transform="translate(407.68 761.36)">VPC subnet<tspan x="3.63" y="14.4">IP add</tspan><tspan class="cls-17" x="37.79" y="14.4">r</tspan><tspan x="42.15" y="14.4">ess</tspan></text><rect class="cls-18" x="355.35" y="696.23" width="33.75" height="19.87"/><path class="cls-19" d="M378.8,684.62a9.64,9.64,0,0,0-6.24-2.21h0c-4.93,0-8.93,3.49-8.93,7.78v6.25h-2.55a1.27,1.27,0,0,0-1.27,1.28v17.85a1.26,1.26,0,0,0,1.27,1.27h23a1.27,1.27,0,0,0,1.27-1.27V697.73a1.26,1.26,0,0,0-1.27-1.28h-2.56v-6.26A7.29,7.29,0,0,0,378.8,684.62Zm-12.62,5.57c0-2.88,2.86-5.23,6.38-5.23h0a7.05,7.05,0,0,1,4.58,1.6,4.79,4.79,0,0,1,1.81,3.63l0,6.26H366.17Zm16.58,12.63h-3.83v2.55h3.83v2.55h-3.83v2.55h3.83v3.83H362.35V699h20.41Z"/><polyline class="cls-3" points="542.5 984.14 542.5 990.14 536.5 990.14"/><line class="cls-20" x1="525.09" y1="990.14" x2="348.23" y2="990.14"/><polyline class="cls-3" points="342.53 990.14 336.53 990.14 336.53 984.14"/><line class="cls-21" x1="336.53" y1="973.09" x2="336.53" y2="846.02"/><polyline class="cls-3" points="336.53 840.5 336.53 834.5 342.53 834.5"/><line class="cls-20" x1="353.94" y1="834.5" x2="530.79" y2="834.5"/><polyline class="cls-3" points="536.5 834.5 542.5 834.5 542.5 840.5"/><line class="cls-21" x1="542.5" y1="851.54" x2="542.5" y2="978.61"/><text class="cls-13" transform="translate(387.74 979.7)"><tspan class="cls-14">A</tspan><tspan x="8.13" y="0">vailabili</tspan><tspan class="cls-15" x="57.17" y="0">t</tspan><tspan x="62.69" y="0">y Zone</tspan></text><rect class="cls-6" x="349.8" y="872.09" width="180.6" height="79.83"/><text class="cls-16" transform="translate(408.27 927.4)">VPC subnet<tspan x="3.63" y="14.4">IP add</tspan><tspan class="cls-22" x="37.79" y="14.4">r</tspan><tspan class="cls-23" x="42.15" y="14.4">ess</tspan></text><rect class="cls-18" x="355.93" y="862.26" width="33.75" height="19.87"/><path class="cls-19" d="M379.38,850.65a9.62,9.62,0,0,0-6.24-2.21h0c-4.92,0-8.93,3.49-8.93,7.78v6.25h-2.54a1.28,1.28,0,0,0-1.28,1.28V881.6a1.28,1.28,0,0,0,1.28,1.27h22.95a1.27,1.27,0,0,0,1.28-1.27V863.76a1.3,1.3,0,0,0-1.28-1.28h-2.55v-6.25A7.31,7.31,0,0,0,379.38,850.65Zm-12.62,5.57c0-2.88,2.87-5.23,6.38-5.23h0a7.05,7.05,0,0,1,4.59,1.61,4.78,4.78,0,0,1,1.8,3.63v6.25H366.76Zm16.58,12.63h-3.82v2.55h3.82V874h-3.82v2.56h3.82v3.82H362.93V865h20.41Z"/><g id="Art-2" data-name="Art"><path class="cls-24" d="M356,612.91H319.18c-6.32,0-11.48-4.09-11.81-10.23v-.84c0-7.07,4.78-10.23,9-11.26h0a19.34,19.34,0,0,1-.11-2,16.7,16.7,0,0,1,28.63-11.18,19.29,19.29,0,0,1,4.61,7.31h0c3.87-5,12.37-3.49,12.92,5.71,4,.82,10.69,3.29,10.69,11.57,0,9.54-7.19,10.92-11.84,10.92H356Z"/><text class="cls-25" transform="translate(319.76 606.45)">VPC</text></g><text class="cls-26" transform="translate(282.13 559.11)"><tspan class="cls-27">A</tspan><tspan x="9.71" y="0">WS </tspan><tspan class="cls-17" x="38.13" y="0">R</tspan><tspan class="cls-28" x="47.92" y="0">egion us-</tspan><tspan class="cls-17" x="115.84" y="0">w</tspan><tspan x="128.17" y="0">es</tspan><tspan class="cls-29" x="143.69" y="0">t</tspan><tspan class="cls-30" x="149.69" y="0">-1</tspan></text><g id="Art-3" data-name="Art"><path class="cls-24" d="M1008.09,795.7H971.23c-6.31,0-11.48-4.09-11.81-10.24v-.83c0-7.08,4.78-10.24,9-11.26h0a17,17,0,0,1-.12-2A16.7,16.7,0,0,1,997,760.18a19.22,19.22,0,0,1,4.61,7.31h0c3.87-5,12.37-3.49,12.93,5.7,4,.82,10.69,3.29,10.69,11.57,0,9.55-7.2,10.93-11.85,10.93h-5.26Z"/><text class="cls-25" transform="translate(971.81 789.24)">VPC</text></g><rect class="cls-6" x="699.4" y="717.52" width="193.38" height="169.5"/><text class="cls-10" transform="translate(709.33 737.71)"><tspan class="cls-17">R</tspan><tspan x="8.57" y="0">esol</tspan><tspan class="cls-31" x="34.54" y="0">v</tspan><tspan x="41.69" y="0">er</tspan></text><rect class="cls-32" x="715.66" y="750.98" width="160.66" height="55.51"/><text class="cls-33" transform="translate(750.87 774.63)"><tspan class="cls-17">F</tspan><tspan x="6.36" y="0">o</tspan><tspan class="cls-36" x="13.49" y="0">r</tspan><tspan class="cls-23" x="18.83" y="0">warding ru</tspan><tspan class="cls-17" x="80.39" y="0">l</tspan><tspan class="cls-23" x="84.17" y="0">e</tspan><tspan class="cls-37"><tspan x="-0.18" y="16">j</tspan><tspan class="cls-17" x="2.88" y="16">y</tspan><tspan x="8.87" y="16">o.example.</tspan><tspan class="cls-38" x="67.81" y="16">c</tspan><tspan class="cls-39" x="73.16" y="16">om</tspan></tspan></text><rect class="cls-32" x="715.66" y="816.98" width="160.66" height="55.51"/><text class="cls-33" transform="translate(750.87 840.63)"><tspan class="cls-17">F</tspan><tspan x="6.36" y="0">o</tspan><tspan class="cls-36" x="13.49" y="0">r</tspan><tspan class="cls-23" x="18.83" y="0">warding ru</tspan><tspan class="cls-17" x="80.39" y="0">l</tspan><tspan class="cls-23" x="84.17" y="0">e</tspan><tspan class="cls-37"><tspan x="1.29" y="16">ric.example.</tspan><tspan class="cls-38" x="66.34" y="16">c</tspan><tspan class="cls-39" x="71.69" y="16">om</tspan></tspan></text><line class="cls-6" x1="699.59" y1="802.78" x2="581.99" y2="802.79"/><line class="cls-34" x1="592.72" y1="813.6" x2="581.38" y2="802.28"/><line class="cls-34" x1="592.32" y1="792.61" x2="581.37" y2="803.58"/><line class="cls-6" x1="295.28" y1="802.78" x2="156.68" y2="802.79"/><line class="cls-34" x1="167.41" y1="813.6" x2="156.07" y2="802.28"/><line class="cls-34" x1="167.01" y1="792.61" x2="156.06" y2="803.58"/><line class="cls-6" x1="961.53" y1="777.5" x2="878.94" y2="777.51"/><line class="cls-34" x1="889.67" y1="788.32" x2="878.33" y2="777"/><line class="cls-34" x1="889.27" y1="767.33" x2="878.32" y2="778.3"/><g id="Art-4" data-name="Art"><path class="cls-24" d="M1007.71,868.7H970.85c-6.31,0-11.48-4.09-11.81-10.24v-.83c0-7.08,4.78-10.24,9-11.26h0a17,17,0,0,1-.12-2,16.7,16.7,0,0,1,28.63-11.17,19.22,19.22,0,0,1,4.61,7.31h0c3.87-5,12.37-3.49,12.93,5.7,4,.82,10.69,3.29,10.69,11.57,0,9.55-7.2,10.93-11.85,10.93h-5.26Z"/><text class="cls-25" transform="translate(971.43 862.24)">VPC</text></g><line class="cls-6" x1="961.15" y1="850.5" x2="878.56" y2="850.51"/><line class="cls-34" x1="889.29" y1="861.32" x2="877.95" y2="850"/><line class="cls-34" x1="888.89" y1="840.33" x2="877.94" y2="851.3"/><line class="cls-6" x1="964.83" y1="794.09" x2="878.34" y2="828.36"/><line class="cls-34" x1="892.29" y1="834.46" x2="877.58" y2="828.11"/><line class="cls-34" x1="884.19" y1="815.09" x2="878.05" y2="829.32"/></svg>